<svg width="25" height="25" viewBox="0 0 25 25" fill="none" xmlns="http://www.w3.org/2000/svg">
<path d="M8.09133e-06 14.3484C0.187978 13.9098 0.501261 13.7845 1.00251 13.7845C1.50377 13.7845 1.94236 13.7845 2.44362 13.7845C2.44362 13.6591 2.44362 13.5965 2.44362 13.4712C2.44362 12.782 2.44362 12.0927 2.44362 11.4035C2.44362 10.7769 2.7569 10.5263 3.32081 10.5263C3.57144 10.5263 3.75941 10.5263 4.01003 10.5263C4.44863 10.5263 4.76191 10.8396 4.76191 11.3409C4.76191 12.0301 4.76191 12.782 4.76191 13.4712C4.76191 13.5338 4.76191 13.6591 4.76191 13.7845C4.88723 13.7845 5.01254 13.7845 5.13785 13.7845C11.4035 13.7845 17.7318 13.7845 23.9975 13.7845C24.1855 13.7845 24.3734 13.7845 24.4988 13.8471C24.812 13.9724 25 14.2231 25 14.5363C25 17.7945 25 21.0526 25 24.3108C25 24.6867 24.6867 25.0627 24.2481 25.0627C24.1855 25.0627 24.1228 25.0627 24.0602 25.0627C17.6692 25.0627 11.2782 25.0627 4.88723 25.0627C4.82457 25.0627 4.76191 25.0627 4.69926 25.0627C4.44863 25.0627 4.32332 24.8747 4.32332 24.6867C4.32332 24.4987 4.51129 24.3108 4.69926 24.3108C5.45114 24.3108 6.20301 24.3108 6.95489 24.3108C7.01755 24.3108 7.08021 24.3108 7.20552 24.3108C7.20552 22.1178 7.20552 19.9875 7.20552 17.7945C5.01254 17.7945 2.88221 17.7945 0.689231 17.7945C0.689231 19.9875 0.689231 22.1178 0.689231 24.3108C0.939858 24.3108 1.12783 24.3108 1.3158 24.3108C1.94236 24.3108 2.50627 24.3108 3.13284 24.3108C3.38347 24.3108 3.57144 24.4361 3.57144 24.6867C3.57144 24.8747 3.38347 25.0627 3.13284 25.0627C2.38096 25.0627 1.62908 25.0627 0.877201 25.0627C0.438605 25.0627 0.0626647 24.9373 -0.125305 24.4987C8.09133e-06 21.1153 8.09133e-06 17.7318 8.09133e-06 14.3484ZM17.7318 24.2481C19.9248 24.2481 22.1178 24.2481 24.2481 24.2481C24.2481 22.0551 24.2481 19.9248 24.2481 17.7318C22.0551 17.7318 19.9248 17.7318 17.7318 17.7318C17.7318 19.9248 17.7318 22.1178 17.7318 24.2481ZM16.98 17.7318C13.9724 17.7318 11.0276 17.7318 8.02006 17.7318C8.02006 19.9248 8.02006 22.0551 8.02006 24.2481C11.0276 24.2481 13.9724 24.2481 16.98 24.2481C16.98 22.1178 16.98 19.9248 16.98 17.7318ZM16.98 14.5363C13.9724 14.5363 11.0276 14.5363 8.02006 14.5363C8.02006 15.3509 8.02006 16.1654 8.02006 16.9799C11.0276 16.9799 13.9724 16.9799 16.98 16.9799C16.98 16.1654 16.98 15.3509 16.98 14.5363ZM17.7318 16.9799C19.9248 16.9799 22.1178 16.9799 24.2481 16.9799C24.2481 16.1654 24.2481 15.3509 24.2481 14.5363C22.0551 14.5363 19.9248 14.5363 17.7318 14.5363C17.7318 15.3509 17.7318 16.1654 17.7318 16.9799ZM0.751888 16.9799C2.94487 16.9799 5.13785 16.9799 7.26818 16.9799C7.26818 16.1654 7.26818 15.3509 7.26818 14.5363C5.0752 14.5363 2.94487 14.5363 0.751888 14.5363C0.751888 15.3509 0.751888 16.1654 0.751888 16.9799ZM3.1955 11.2782C3.1955 12.0927 3.1955 12.9073 3.1955 13.7218C3.50878 13.7218 3.75941 13.7218 4.07269 13.7218C4.07269 12.9073 4.07269 12.0927 4.07269 11.2782C3.75941 11.2782 3.50878 11.2782 3.1955 11.2782Z" fill="#5AA058"/>
<path d="M14.3484 0C14.787 0.18797 14.9123 0.56391 14.9123 1.00251C14.9123 2.00501 14.9123 3.00752 14.9123 4.07268C14.9123 4.198 14.975 4.32331 15.0376 4.44862C15.6015 5.13784 16.1654 5.82707 16.792 6.51629C16.8547 6.6416 16.9173 6.76692 16.98 6.95489C16.98 7.33083 16.98 7.64411 16.98 8.02005C16.98 8.58396 16.6667 8.89724 16.1028 8.89724C13.7218 8.89724 11.4035 8.89724 9.02258 8.89724C8.45867 8.89724 8.14539 8.58396 8.14539 8.02005C8.14539 6.76692 8.14539 6.76692 8.95992 5.82707C9.33586 5.38847 9.7118 4.94987 10.0877 4.51128C10.1504 4.38596 10.2131 4.26065 10.2131 4.13534C10.2131 3.13283 10.2131 2.13033 10.2131 1.06516C10.2131 0.626566 10.3384 0.250627 10.777 0.0626566C11.9048 0 13.1579 0 14.3484 0ZM10.9023 0.75188C10.9023 1.8797 10.9023 2.94486 10.9023 4.01003C12.0301 4.01003 13.0953 4.01003 14.1604 4.01003C14.1604 2.88221 14.1604 1.81704 14.1604 0.75188C13.0326 0.75188 11.9674 0.75188 10.9023 0.75188ZM15.7268 6.45363C15.2882 5.88972 14.8496 5.38847 14.411 4.88722C14.3484 4.82456 14.2857 4.82456 14.1604 4.82456C13.0326 4.82456 11.9048 4.82456 10.8396 4.82456C10.7143 4.82456 10.589 4.88722 10.5263 4.94987C10.2131 5.26316 9.96243 5.6391 9.64914 6.01504C9.52383 6.14035 9.39852 6.32832 9.27321 6.45363C11.4662 6.45363 13.5965 6.45363 15.7268 6.45363ZM16.1654 7.26817C13.7218 7.26817 11.2782 7.26817 8.83461 7.26817C8.83461 7.58145 8.83461 7.83208 8.83461 8.08271C11.2782 8.08271 13.7218 8.08271 16.1654 8.08271C16.1654 7.76942 16.1654 7.5188 16.1654 7.26817Z" fill="#5AA058"/>
<path d="M6.6416 0C7.0802 0.18797 7.20551 0.501253 7.20551 0.939849C7.20551 2.44361 7.20551 3.94737 7.20551 5.45113C7.20551 5.95238 6.89223 6.39098 6.26566 6.39098C4.51128 6.39098 2.75689 6.39098 0.93985 6.39098C0.56391 6.39098 0.18797 6.26566 0 5.88972C0 4.13534 0 2.3183 0 0.56391C0 0.438596 0 0.125313 0.0626566 0.0626566C0.125313 0 0.37594 0 0.56391 0C2.56892 0 4.63659 0 6.6416 0ZM6.45363 0.75188C4.51128 0.75188 2.63158 0.75188 0.75188 0.75188C0.75188 2.38095 0.75188 4.01002 0.75188 5.6391C2.63158 5.6391 4.57394 5.6391 6.45363 5.6391C6.45363 4.01002 6.45363 2.38095 6.45363 0.75188Z" fill="#5AA058"/>
<path d="M21.4286 4.07268C21.5539 4.07268 21.6792 4.07268 21.8672 4.07268C22.0551 4.07268 22.2431 4.19799 22.2431 4.44862C22.2431 4.63659 22.1178 4.82456 21.9298 4.82456C21.6165 4.82456 21.3659 4.82456 21.0526 4.82456C20.8647 4.82456 20.6767 4.63659 20.7393 4.44862C20.7393 4.26065 20.8647 4.13533 21.1153 4.07268C21.1153 4.07268 21.3033 4.07268 21.4286 4.07268Z" fill="#5AA058"/>
</svg>
