<svg width="24" height="20" viewBox="0 0 24 20" fill="none" xmlns="http://www.w3.org/2000/svg">
<path d="M13.9823 16.2732C12.1467 16.2732 10.3191 16.2732 8.48349 16.2732C7.19059 16.2732 6.44039 15.6187 6.20097 14.3418C5.42682 10.1917 4.6447 6.03373 3.87056 1.88369C3.79075 1.45272 3.76681 1.43676 3.32786 1.43676C2.47391 1.43676 1.61198 1.45272 0.758028 1.43676C0.183408 1.4208 -0.151788 0.918004 0.0716757 0.431172C0.191388 0.159823 0.414852 0.0161681 0.710143 0.00818728C1.70775 0.000206432 2.70535 -0.0157553 3.69498 0.0161681C4.46114 0.0401107 5.04374 0.558866 5.21134 1.30907C5.355 1.93955 5.48269 2.57004 5.58644 3.20851C5.62634 3.43995 5.72211 3.48784 5.9376 3.48784C9.1459 3.47986 12.3462 3.47986 15.5545 3.47986C17.5338 3.47986 19.513 3.47187 21.5002 3.47986C22.6654 3.48784 23.5034 4.23006 23.6311 5.35536C23.6551 5.5868 23.6311 5.83421 23.5832 6.06565C22.9607 8.90683 22.3223 11.756 21.6838 14.5972C21.4524 15.6267 20.6303 16.2572 19.537 16.2572C17.6854 16.2732 15.8338 16.2732 13.9823 16.2732ZM5.96154 4.92439C6.12914 5.80228 6.29674 6.64027 6.44039 7.47826C6.83943 9.72088 7.23848 11.9635 7.63752 14.2061C7.71733 14.6451 7.92483 14.8286 8.37176 14.8286C12.1068 14.8286 15.8418 14.8286 19.5769 14.8286C20.0238 14.8286 20.2233 14.661 20.3271 14.2141C20.9416 11.4607 21.5561 8.69933 22.1706 5.94594C22.3303 5.2117 22.0908 4.93237 21.3326 4.93237C16.6239 4.93237 11.9153 4.92439 7.20655 4.92439C6.80751 4.92439 6.40847 4.92439 5.96154 4.92439Z" fill="white"/>
<path d="M9.32163 17.1348C10.0958 17.1348 10.7502 17.7893 10.7502 18.5634C10.7502 19.3615 10.0958 20.0079 9.30567 20C8.52354 19.992 7.89306 19.3615 7.88508 18.5714C7.8771 17.7653 8.51556 17.1269 9.32163 17.1348Z" fill="white"/>
<path d="M20.1516 18.5396C20.1596 19.3456 19.5291 19.9921 18.731 19.9921C17.9489 19.9921 17.3105 19.3696 17.2865 18.5795C17.2705 17.7973 17.917 17.1349 18.7151 17.127C19.5052 17.127 20.1437 17.7574 20.1516 18.5396Z" fill="white"/>
</svg>
