<svg width="50" height="50" viewBox="0 0 50 50" fill="none" xmlns="http://www.w3.org/2000/svg">
<circle cx="25" cy="25" r="25" fill="#5AA058"/>
<path d="M25.0969 15.6228C25.6054 15.0606 26.0516 14.4182 26.6226 13.9453C29.0138 11.9735 31.7352 11.4827 34.635 12.5445C37.5258 13.6063 39.2657 15.7566 39.7832 18.7991C40.2382 21.4491 39.5066 23.8136 37.624 25.7319C33.9212 29.5061 30.1559 33.2267 26.4174 36.9652C26.1943 37.1883 25.9802 37.4114 25.7571 37.6255C25.2396 38.1252 24.6418 38.1252 24.1332 37.6166C22.7413 36.2336 21.3584 34.8506 19.9754 33.4587C17.4682 30.9515 14.9699 28.4532 12.4627 25.946C10.8031 24.2864 9.9644 22.2789 10.0001 19.9145C10.0625 15.944 13.1051 12.5713 17.0577 12.1073C19.6363 11.804 21.8669 12.5624 23.7496 14.3468C24.1511 14.7305 24.5258 15.1409 24.9095 15.5425C24.9719 15.5692 25.0344 15.596 25.0969 15.6228ZM24.9987 35.4306C25.1058 35.2967 25.1772 35.1897 25.2753 35.0915C26.9617 33.3963 28.6569 31.7099 30.3522 30.0147C32.2794 28.0874 34.2245 26.178 36.125 24.224C37.5169 22.7875 38.0522 21.0298 37.6775 19.0668C37.2403 16.7559 35.8662 15.1677 33.6089 14.4628C31.3515 13.758 29.3261 14.3022 27.613 15.9261C26.9884 16.515 26.3995 17.1396 25.7928 17.7374C25.2575 18.2638 24.6686 18.2638 24.1243 17.7285C23.473 17.086 22.8395 16.4258 22.1792 15.8012C19.9932 13.7223 16.5402 13.6241 14.2561 15.5603C11.5615 17.8444 11.4009 21.8328 13.9081 24.3489C17.5128 27.9714 21.1264 31.5761 24.74 35.1897C24.8024 35.2611 24.8649 35.3146 24.9987 35.4306Z" fill="white"/>
</svg>
