<svg width="34" height="36" viewBox="0 0 34 36" fill="none" xmlns="http://www.w3.org/2000/svg">
<ellipse cx="17" cy="18" rx="17" ry="18" fill="#00477F"/>
<path d="M20.694 17.2748C18.2826 14.6285 15.8798 11.9823 13.477 9.3267C13.4345 9.27995 13.3921 9.2332 13.3496 9.19579C12.9506 8.84047 12.3477 8.98073 12.1015 9.47631C11.9147 9.85969 11.9826 10.2618 12.3053 10.6171C14.4959 13.0296 16.6779 15.4327 18.8685 17.8451C18.911 17.8919 18.9534 17.9387 19.0128 18.0041C18.9534 18.0602 18.9025 18.107 18.8515 18.1537C16.6779 20.5475 14.5128 22.9319 12.3477 25.3163C12.2883 25.3818 12.2374 25.4379 12.1864 25.5127C11.9147 25.8867 11.9487 26.429 12.2883 26.747C12.2883 26.747 12.6449 27.0368 12.9845 26.9994C13.1628 26.9807 13.3581 26.7844 13.4855 26.6441C15.8968 23.9979 18.2996 21.3516 20.7025 18.7054C20.7704 18.6306 20.8383 18.5464 20.8893 18.4436C21.093 18.0602 21.0166 17.6394 20.694 17.2748Z" fill="white"/>
</svg>
