<svg width="36" height="36" viewBox="0 0 36 36" fill="none" xmlns="http://www.w3.org/2000/svg">
<circle cx="18" cy="18" r="18" transform="rotate(-180 18 18)" fill="#00477F"/>
<path d="M13.4253 18.7252C16.0808 21.3714 18.7271 24.0176 21.3733 26.6732C21.4201 26.72 21.4668 26.7667 21.5136 26.8041C21.953 27.1594 22.6169 27.0192 22.8881 26.5236C23.0938 26.1402 23.019 25.7381 22.6637 25.3828C20.2512 22.9703 17.8481 20.5672 15.4356 18.1548C15.3889 18.108 15.3421 18.0613 15.2767 17.9958C15.3421 17.9397 15.3982 17.8929 15.4543 17.8462C17.8481 15.4524 20.2325 13.068 22.6169 10.6836C22.6824 10.6181 22.7385 10.562 22.7946 10.4872C23.0938 10.1132 23.0564 9.57087 22.6824 9.25294C22.6824 9.25294 22.2897 8.96308 21.9156 9.00048C21.7193 9.01918 21.5042 9.21554 21.364 9.3558C18.7084 12.002 16.0621 14.6483 13.4159 17.2945C13.3411 17.3693 13.2663 17.4535 13.2102 17.5563C12.9858 17.9397 13.0699 18.3605 13.4253 18.7252Z" fill="white"/>
</svg>
