<svg width="24" height="24" viewBox="0 0 24 24" fill="none" xmlns="http://www.w3.org/2000/svg">
<path d="M0 18.5625C0.132372 17.9719 0.504031 17.5646 0.936784 17.1573C2.41833 15.7725 3.1871 14.0466 3.24311 12.0203C3.27365 10.9053 3.24311 9.78523 3.25329 8.66516C3.28893 5.27951 5.65125 2.30114 8.93509 1.48146C9.47985 1.34399 9.92278 1.56801 10.045 2.0364C10.1672 2.50479 9.87696 2.907 9.34238 3.05973C7.11243 3.69105 5.67162 5.12168 5.07085 7.35672C4.94357 7.82511 4.90284 8.32405 4.88757 8.81281C4.86211 9.7445 4.87739 10.6762 4.88248 11.6079C4.89775 14.3979 3.87442 16.7297 1.7972 18.5981C1.71574 18.6745 1.62919 18.8629 1.66483 18.9291C1.72083 19.0258 1.88375 19.1073 2.00594 19.1123C2.74417 19.1276 3.4773 19.1225 4.21553 19.1225C9.30675 19.1225 14.398 19.1225 19.4841 19.1225C19.5503 19.1225 19.6266 19.1429 19.6877 19.1174C19.8099 19.0716 19.9728 19.0258 20.0238 18.9291C20.0594 18.8578 19.9728 18.6847 19.8914 18.5981C19.4179 18.0585 18.9037 17.5544 18.4608 16.9893C18.1553 16.6024 17.9313 16.1442 17.6971 15.7063C17.4781 15.2837 17.6462 14.8052 18.0484 14.6015C18.4608 14.3979 18.9291 14.5506 19.143 14.9834C19.6165 15.9456 20.263 16.7704 21.0776 17.4679C21.658 17.9668 21.8311 18.7916 21.5613 19.5145C21.2915 20.2426 20.6092 20.7364 19.8252 20.7415C18.252 20.7517 16.6737 20.7466 15.1006 20.7415C14.8969 20.7415 14.8205 20.7924 14.7594 20.9961C14.2503 22.6558 13.1404 23.6435 11.4247 23.9541C11.3738 23.9643 11.328 23.9846 11.2821 23.9999C10.9767 23.9999 10.6712 23.9999 10.3657 23.9999C10.3199 23.9846 10.2741 23.9592 10.2283 23.9541C8.68053 23.6741 7.61646 22.7933 7.02588 21.3372C6.94951 21.1488 6.90369 20.9503 6.8426 20.7466C6.74586 20.7466 6.65422 20.7466 6.56258 20.7466C5.04031 20.7466 3.51803 20.7466 1.99067 20.7466C1.00297 20.7466 0.305473 20.212 0.045821 19.26C0.0356385 19.2294 0.0152737 19.204 0 19.1734C0 18.9698 0 18.7661 0 18.5625ZM13.1048 20.7619C11.5978 20.7619 10.0908 20.7619 8.5787 20.7619C8.80781 21.6732 9.85151 22.3911 10.9003 22.3707C11.8982 22.3554 12.9266 21.607 13.1048 20.7619Z" fill="white"/>
<path d="M17.5851 12.2241C14.2045 12.2088 11.4756 9.47482 11.4858 6.09934C11.496 2.71368 14.2503 -0.0152098 17.6309 6.38034e-05C20.9962 0.0153375 23.7302 2.77987 23.7098 6.15025C23.6945 9.51046 20.9453 12.2394 17.5851 12.2241ZM17.5952 10.8138C20.1867 10.8189 22.2995 8.71623 22.3046 6.12989C22.3097 3.53337 20.1969 1.41033 17.6054 1.41033C15.014 1.41033 12.9113 3.50282 12.9011 6.09934C12.891 8.70095 14.9885 10.8138 17.5952 10.8138Z" fill="white"/>
</svg>
