<svg width="48" height="15" viewBox="0 0 48 15" fill="none" xmlns="http://www.w3.org/2000/svg">
<path d="M6.98 1.28L7.98 3.08L5.38 4.02L7.98 4.96L6.94 6.82L4.78 5.04L5.24 7.8H3.16L3.6 5.04L1.46 6.86L0.36 4.94L2.96 4L0.38 3.1L1.4 1.26L3.62 3.02L3.16 0.239999H5.26L4.78 3.02L6.98 1.28ZM10.0716 3V0.419999H14.8916V15H12.0116V3H10.0716ZM17.6577 7.52C17.6577 5.21333 18.071 3.40667 18.8977 2.1C19.7377 0.793333 21.1243 0.139999 23.0577 0.139999C24.991 0.139999 26.371 0.793333 27.1977 2.1C28.0377 3.40667 28.4577 5.21333 28.4577 7.52C28.4577 9.84 28.0377 11.66 27.1977 12.98C26.371 14.3 24.991 14.96 23.0577 14.96C21.1243 14.96 19.7377 14.3 18.8977 12.98C18.071 11.66 17.6577 9.84 17.6577 7.52ZM25.6977 7.52C25.6977 6.53333 25.631 5.70667 25.4977 5.04C25.3777 4.36 25.1243 3.80667 24.7377 3.38C24.3643 2.95333 23.8043 2.74 23.0577 2.74C22.311 2.74 21.7443 2.95333 21.3577 3.38C20.9843 3.80667 20.731 4.36 20.5977 5.04C20.4777 5.70667 20.4177 6.53333 20.4177 7.52C20.4177 8.53333 20.4777 9.38667 20.5977 10.08C20.7177 10.76 20.971 11.3133 21.3577 11.74C21.7443 12.1533 22.311 12.36 23.0577 12.36C23.8043 12.36 24.371 12.1533 24.7577 11.74C25.1443 11.3133 25.3977 10.76 25.5177 10.08C25.6377 9.38667 25.6977 8.53333 25.6977 7.52ZM30.5873 7.52C30.5873 5.21333 31.0007 3.40667 31.8273 2.1C32.6673 0.793333 34.054 0.139999 35.9873 0.139999C37.9207 0.139999 39.3007 0.793333 40.1273 2.1C40.9673 3.40667 41.3873 5.21333 41.3873 7.52C41.3873 9.84 40.9673 11.66 40.1273 12.98C39.3007 14.3 37.9207 14.96 35.9873 14.96C34.054 14.96 32.6673 14.3 31.8273 12.98C31.0007 11.66 30.5873 9.84 30.5873 7.52ZM38.6273 7.52C38.6273 6.53333 38.5607 5.70667 38.4273 5.04C38.3073 4.36 38.054 3.80667 37.6673 3.38C37.294 2.95333 36.734 2.74 35.9873 2.74C35.2407 2.74 34.674 2.95333 34.2873 3.38C33.914 3.80667 33.6607 4.36 33.5273 5.04C33.4073 5.70667 33.3473 6.53333 33.3473 7.52C33.3473 8.53333 33.4073 9.38667 33.5273 10.08C33.6473 10.76 33.9007 11.3133 34.2873 11.74C34.674 12.1533 35.2407 12.36 35.9873 12.36C36.734 12.36 37.3007 12.1533 37.6873 11.74C38.074 11.3133 38.3273 10.76 38.4473 10.08C38.5673 9.38667 38.6273 8.53333 38.6273 7.52ZM43.177 3V0.419999H47.997V15H45.117V3H43.177Z" fill="#00477F"/>
</svg>
