<svg width="16" height="16" viewBox="0 0 16 16" fill="none" xmlns="http://www.w3.org/2000/svg">
<path d="M8.2 16H7.99998C6.69998 16 5.59998 15.9999 4.49998 15.8999C3.49998 15.8999 2.49997 15.4999 1.79997 14.8999C1.09997 14.2999 0.49997 13.5 0.299971 12.5C0.0999705 11.7 -4.16934e-05 10.8 0.0999583 10C0.0999583 9.4 0.0999583 8.7 0.0999583 8C0.0999583 7.3 0.0999583 6.6 0.0999583 6C0.0999583 5.2 0.199971 4.3 0.299971 3.5C0.49997 2.6 0.99997 1.7001 1.79997 1.1001C2.59997 0.500098 3.49998 0.100098 4.49998 0.100098C5.59998 9.76548e-05 6.79998 0 7.99998 0C9.29998 0 10.4 9.76548e-05 11.5 0.100098C12.5 0.100098 13.5 0.500098 14.2 1.1001C14.9 1.7001 15.5 2.5 15.7 3.5C15.9 4.3 16 5.2 15.9 6C15.9 6.6 15.9 7.3 15.9 8C15.9 8.7 15.9 9.4 15.9 10C15.9 10.8 15.8 11.7 15.7 12.5C15.5 13.4 15 14.2999 14.2 14.8999C13.4 15.4999 12.5 15.8999 11.5 15.8999C10.5 15.9999 9.39999 16 8.2 16ZM7.99998 14.8C9.19998 14.8 10.4 14.8 11.5 14.7C12.2 14.7 12.9 14.3999 13.5 13.8999C14 13.4999 14.4 12.9 14.5 12.2C14.7 11.5 14.7 10.7 14.7 10C14.7 9.4 14.7 8.7 14.7 8C14.7 7.3 14.7 6.6 14.7 6C14.7 5.3 14.7 4.50005 14.5 3.80005C14.3 3.10005 14 2.5001 13.4 2.1001C12.8 1.6001 12.1 1.40005 11.4 1.30005C10.3 1.20005 9.20001 1.19995 7.90001 1.19995C6.70001 1.19995 5.50001 1.20005 4.40001 1.30005C3.70001 1.30005 3.00001 1.6001 2.40001 2.1001C1.90001 2.5001 1.50001 3.10005 1.40001 3.80005C1.20001 4.50005 1.19999 5.3 1.19999 6C1.19999 6.6 1.19999 7.3 1.19999 8C1.19999 8.7 1.19999 9.4 1.19999 10C1.19999 10.7 1.20001 11.5 1.40001 12.2C1.60001 12.9 1.89998 13.4999 2.49998 13.8999C3.09998 14.3999 3.79998 14.6 4.49998 14.7C5.59998 14.7 6.79998 14.8 7.99998 14.8ZM7.99998 11.8999C5.79998 11.8999 4.09996 10.2 4.09996 8C4.09996 5.8 5.79998 4.1001 7.99998 4.1001C10.2 4.1001 11.9 5.8 11.9 8C11.9 10.2 10.1 11.8999 7.99998 11.8999ZM7.99998 5.30005C6.49998 5.30005 5.29997 6.5 5.29997 8C5.29997 9.5 6.49998 10.7 7.99998 10.7C9.49998 10.7 10.7 9.5 10.7 8C10.6 6.5 9.39998 5.30005 7.99998 5.30005ZM12.3 2.80005C11.8 2.80005 11.4 3.19995 11.4 3.69995C11.4 4.19995 11.8 4.6001 12.3 4.6001C12.8 4.6001 13.2 4.19995 13.2 3.69995C13.3 3.29995 12.8 2.80005 12.3 2.80005Z" fill="#00477F"/>
</svg>
