<svg width="20" height="16" viewBox="0 0 20 16" fill="none" xmlns="http://www.w3.org/2000/svg">
<path d="M18.9 1.8999C18.5 2.0999 18 2.20005 17.6 2.30005C18.1 1.80005 18.5 1.2001 18.7 0.600098C18.7 0.500098 18.7 0.400049 18.6 0.300049C18.5 0.300049 18.5 0.300049 18.4 0.300049C17.8 0.700049 17.1 1.0001 16.4 1.1001H16.3C16.2 1.1001 16 1.1 15.9 1C15.1 0.3 14.2 0 13.2 0C12.8 0 12.3 0.0999512 11.9 0.199951C10.6 0.599951 9.50001 1.7001 9.20001 3.1001C9.10001 3.6001 8.99998 4.1001 9.09998 4.6001V4.69995L9 4.80005C6.1 4.50005 3.4 3.10005 1.5 0.800049C1.4 0.700049 1.30001 0.700049 1.20001 0.800049C1.20001 0.800049 1.20001 0.799902 1.20001 0.899902C0.200012 2.4999 0.500024 4.5999 1.90002 5.8999C1.60002 5.7999 1.3 5.7 1 5.5C0.9 5.4 0.800012 5.5001 0.700012 5.6001V5.69995C0.700012 7.29995 1.59998 8.8 3.09998 9.5H3C2.8 9.5 2.49999 9.4999 2.29999 9.3999C2.19999 9.3999 2.1 9.5001 2 9.6001V9.69995C2.5 11.2 3.69999 12.3 5.29999 12.5C3.99999 13.4 2.5 13.8 1 13.8H0.5C0.4 13.8 0.200012 13.9 0.200012 14C0.200012 14.1 0.200024 14.2999 0.400024 14.3999C2.10002 15.3999 4.09998 15.8999 6.09998 15.8999C7.79998 15.8999 9.5 15.5999 11 14.8999C12.4 14.2999 13.6 13.4 14.6 12.2C15.5 11.1 16.3 9.9 16.8 8.5C17.3 7.2 17.5 5.9 17.5 4.5V4.3999C17.5 4.1999 17.6 3.9999 17.8 3.8999C18.4 3.3999 19 2.8001 19.4 2.1001C19.5 2.0001 19.4 1.90005 19.3 1.80005C19.1 1.80005 19 1.7999 18.9 1.8999Z" fill="#00477F"/>
</svg>
