<svg width="250" height="50" viewBox="0 0 250 50" fill="none" xmlns="http://www.w3.org/2000/svg">
<rect width="250" height="50" rx="10" fill="#00477F"/>
<path d="M87.5842 31.6456C85.9322 31.6456 84.2874 31.6456 82.6353 31.6456C81.4717 31.6456 80.7965 31.0566 80.581 29.9074C79.8843 26.1723 79.1804 22.4301 78.4837 18.6951C78.4119 18.3072 78.3903 18.2929 77.9953 18.2929C77.2267 18.2929 76.451 18.3072 75.6824 18.2929C75.1652 18.2785 74.8636 17.826 75.0647 17.3878C75.1724 17.1436 75.3735 17.0143 75.6393 17.0071C76.5372 17 77.435 16.9856 78.3257 17.0143C79.0152 17.0359 79.5395 17.5027 79.6904 18.1779C79.8197 18.7454 79.9346 19.3128 80.028 19.8874C80.0639 20.0957 80.1501 20.1388 80.344 20.1388C83.2315 20.1316 86.1118 20.1316 88.9992 20.1316C90.7806 20.1316 92.5619 20.1245 94.3504 20.1316C95.3991 20.1388 96.1533 20.8068 96.2682 21.8196C96.2897 22.0279 96.2682 22.2506 96.2251 22.4589C95.6648 25.0159 95.0902 27.5802 94.5156 30.1372C94.3073 31.0638 93.5675 31.6312 92.5834 31.6312C90.917 31.6456 89.2506 31.6456 87.5842 31.6456ZM80.3656 21.4317C80.5164 22.2218 80.6672 22.976 80.7965 23.7302C81.1557 25.7486 81.5148 27.7669 81.8739 29.7853C81.9458 30.1803 82.1325 30.3455 82.5348 30.3455C85.8963 30.3455 89.2578 30.3455 92.6194 30.3455C93.0216 30.3455 93.2012 30.1947 93.2945 29.7925C93.8476 27.3144 94.4007 24.8292 94.9538 22.3511C95.0974 21.6903 94.8819 21.4389 94.1996 21.4389C89.9617 21.4389 85.7239 21.4317 81.4861 21.4317C81.1269 21.4317 80.7678 21.4317 80.3656 21.4317Z" fill="white"/>
<path d="M83.3895 32.4214C84.0862 32.4214 84.6752 33.0104 84.6752 33.7071C84.6752 34.4254 84.0862 35.0072 83.3751 35C82.6712 34.9928 82.1037 34.4254 82.0966 33.7143C82.0894 32.9888 82.664 32.4142 83.3895 32.4214Z" fill="white"/>
<path d="M93.1365 33.6855C93.1437 34.411 92.5762 34.9928 91.8579 34.9928C91.154 34.9928 90.5794 34.4325 90.5579 33.7214C90.5435 33.0175 91.1253 32.4214 91.8436 32.4142C92.5547 32.4142 93.1293 32.9816 93.1365 33.6855Z" fill="white"/>
<path d="M111.172 30.098C110.528 30.098 109.949 29.986 109.436 29.762C108.932 29.5287 108.535 29.2113 108.246 28.81C107.957 28.3993 107.807 27.928 107.798 27.396H109.156C109.203 27.8533 109.389 28.2407 109.716 28.558C110.052 28.866 110.537 29.02 111.172 29.02C111.779 29.02 112.255 28.8707 112.6 28.572C112.955 28.264 113.132 27.872 113.132 27.396C113.132 27.0227 113.029 26.7193 112.824 26.486C112.619 26.2527 112.362 26.0753 112.054 25.954C111.746 25.8327 111.331 25.702 110.808 25.562C110.164 25.394 109.646 25.226 109.254 25.058C108.871 24.89 108.54 24.6287 108.26 24.274C107.989 23.91 107.854 23.4247 107.854 22.818C107.854 22.286 107.989 21.8147 108.26 21.404C108.531 20.9933 108.909 20.676 109.394 20.452C109.889 20.228 110.453 20.116 111.088 20.116C112.003 20.116 112.749 20.3447 113.328 20.802C113.916 21.2593 114.247 21.866 114.322 22.622H112.922C112.875 22.2487 112.679 21.922 112.334 21.642C111.989 21.3527 111.531 21.208 110.962 21.208C110.43 21.208 109.996 21.348 109.66 21.628C109.324 21.8987 109.156 22.2813 109.156 22.776C109.156 23.1307 109.254 23.42 109.45 23.644C109.655 23.868 109.903 24.0407 110.192 24.162C110.491 24.274 110.906 24.4047 111.438 24.554C112.082 24.7313 112.6 24.9087 112.992 25.086C113.384 25.254 113.72 25.52 114 25.884C114.28 26.2387 114.42 26.724 114.42 27.34C114.42 27.816 114.294 28.264 114.042 28.684C113.79 29.104 113.417 29.4447 112.922 29.706C112.427 29.9673 111.844 30.098 111.172 30.098ZM119.501 22.202C120.229 22.202 120.877 22.3653 121.447 22.692C122.025 23.0187 122.478 23.4853 122.805 24.092C123.131 24.6893 123.295 25.3847 123.295 26.178C123.295 26.9713 123.136 27.6667 122.819 28.264C122.501 28.8613 122.053 29.3233 121.475 29.65C120.905 29.9673 120.247 30.126 119.501 30.126C118.773 30.126 118.129 29.9673 117.569 29.65C117.009 29.3327 116.575 28.8987 116.267 28.348C115.968 27.788 115.819 27.158 115.819 26.458C115.819 26.206 115.833 25.9493 115.861 25.688H121.993C121.946 24.932 121.685 24.344 121.209 23.924C120.742 23.4947 120.173 23.28 119.501 23.28C118.95 23.28 118.488 23.4107 118.115 23.672C117.751 23.924 117.494 24.2647 117.345 24.694H115.973C116.178 23.9567 116.589 23.3593 117.205 22.902C117.821 22.4353 118.586 22.202 119.501 22.202ZM119.557 29.048C120.201 29.048 120.747 28.8427 121.195 28.432C121.652 28.0213 121.913 27.452 121.979 26.724H117.135C117.135 27.2093 117.242 27.6293 117.457 27.984C117.671 28.3293 117.961 28.5953 118.325 28.782C118.698 28.9593 119.109 29.048 119.557 29.048ZM126.25 23.756C126.512 23.2987 126.894 22.9253 127.398 22.636C127.902 22.3467 128.476 22.202 129.12 22.202C129.811 22.202 130.432 22.3653 130.982 22.692C131.533 23.0187 131.967 23.4807 132.284 24.078C132.602 24.666 132.76 25.352 132.76 26.136C132.76 26.9107 132.602 27.6013 132.284 28.208C131.967 28.8147 131.528 29.286 130.968 29.622C130.418 29.958 129.802 30.126 129.12 30.126C128.458 30.126 127.874 29.9813 127.37 29.692C126.876 29.4027 126.502 29.034 126.25 28.586V30H124.976V19.64H126.25V23.756ZM131.458 26.136C131.458 25.5573 131.342 25.0533 131.108 24.624C130.875 24.1947 130.558 23.868 130.156 23.644C129.764 23.42 129.33 23.308 128.854 23.308C128.388 23.308 127.954 23.4247 127.552 23.658C127.16 23.882 126.843 24.2133 126.6 24.652C126.367 25.0813 126.25 25.5807 126.25 26.15C126.25 26.7287 126.367 27.2373 126.6 27.676C126.843 28.1053 127.16 28.4367 127.552 28.67C127.954 28.894 128.388 29.006 128.854 29.006C129.33 29.006 129.764 28.894 130.156 28.67C130.558 28.4367 130.875 28.1053 131.108 27.676C131.342 27.2373 131.458 26.724 131.458 26.136ZM137.643 22.202C138.371 22.202 139.02 22.3653 139.589 22.692C140.168 23.0187 140.621 23.4853 140.947 24.092C141.274 24.6893 141.437 25.3847 141.437 26.178C141.437 26.9713 141.279 27.6667 140.961 28.264C140.644 28.8613 140.196 29.3233 139.617 29.65C139.048 29.9673 138.39 30.126 137.643 30.126C136.915 30.126 136.271 29.9673 135.711 29.65C135.151 29.3327 134.717 28.8987 134.409 28.348C134.111 27.788 133.961 27.158 133.961 26.458C133.961 26.206 133.975 25.9493 134.003 25.688H140.135C140.089 24.932 139.827 24.344 139.351 23.924C138.885 23.4947 138.315 23.28 137.643 23.28C137.093 23.28 136.631 23.4107 136.257 23.672C135.893 23.924 135.637 24.2647 135.487 24.694H134.115C134.321 23.9567 134.731 23.3593 135.347 22.902C135.963 22.4353 136.729 22.202 137.643 22.202ZM137.699 29.048C138.343 29.048 138.889 28.8427 139.337 28.432C139.795 28.0213 140.056 27.452 140.121 26.724H135.277C135.277 27.2093 135.385 27.6293 135.599 27.984C135.814 28.3293 136.103 28.5953 136.467 28.782C136.841 28.9593 137.251 29.048 137.699 29.048ZM144.673 23.378V27.9C144.673 28.2733 144.752 28.5393 144.911 28.698C145.07 28.8473 145.345 28.922 145.737 28.922H146.675V30H145.527C144.818 30 144.286 29.8367 143.931 29.51C143.576 29.1833 143.399 28.6467 143.399 27.9V23.378H142.405V22.328H143.399V20.396H144.673V22.328H146.675V23.378H144.673ZM151.425 22.202C152.153 22.202 152.801 22.3653 153.371 22.692C153.949 23.0187 154.402 23.4853 154.729 24.092C155.055 24.6893 155.219 25.3847 155.219 26.178C155.219 26.9713 155.06 27.6667 154.743 28.264C154.425 28.8613 153.977 29.3233 153.399 29.65C152.829 29.9673 152.171 30.126 151.425 30.126C150.697 30.126 150.053 29.9673 149.493 29.65C148.933 29.3327 148.499 28.8987 148.191 28.348C147.892 27.788 147.743 27.158 147.743 26.458C147.743 26.206 147.757 25.9493 147.785 25.688H153.917C153.87 24.932 153.609 24.344 153.133 23.924C152.666 23.4947 152.097 23.28 151.425 23.28C150.874 23.28 150.412 23.4107 150.039 23.672C149.675 23.924 149.418 24.2647 149.269 24.694H147.897C148.102 23.9567 148.513 23.3593 149.129 22.902C149.745 22.4353 150.51 22.202 151.425 22.202ZM151.481 29.048C152.125 29.048 152.671 28.8427 153.119 28.432C153.576 28.0213 153.837 27.452 153.903 26.724H149.059C149.059 27.2093 149.166 27.6293 149.381 27.984C149.595 28.3293 149.885 28.5953 150.249 28.782C150.622 28.9593 151.033 29.048 151.481 29.048ZM160.157 26.136C160.157 25.352 160.315 24.666 160.633 24.078C160.95 23.4807 161.384 23.0187 161.935 22.692C162.495 22.3653 163.115 22.202 163.797 22.202C164.469 22.202 165.052 22.3467 165.547 22.636C166.041 22.9253 166.41 23.2893 166.653 23.728V22.328H167.941V30H166.653V28.572C166.401 29.02 166.023 29.3933 165.519 29.692C165.024 29.9813 164.445 30.126 163.783 30.126C163.101 30.126 162.485 29.958 161.935 29.622C161.384 29.286 160.95 28.8147 160.633 28.208C160.315 27.6013 160.157 26.9107 160.157 26.136ZM166.653 26.15C166.653 25.5713 166.536 25.0673 166.303 24.638C166.069 24.2087 165.752 23.882 165.351 23.658C164.959 23.4247 164.525 23.308 164.049 23.308C163.573 23.308 163.139 23.42 162.747 23.644C162.355 23.868 162.042 24.1947 161.809 24.624C161.575 25.0533 161.459 25.5573 161.459 26.136C161.459 26.724 161.575 27.2373 161.809 27.676C162.042 28.1053 162.355 28.4367 162.747 28.67C163.139 28.894 163.573 29.006 164.049 29.006C164.525 29.006 164.959 28.894 165.351 28.67C165.752 28.4367 166.069 28.1053 166.303 27.676C166.536 27.2373 166.653 26.7287 166.653 26.15ZM171.648 23.378V27.9C171.648 28.2733 171.727 28.5393 171.886 28.698C172.044 28.8473 172.32 28.922 172.712 28.922H173.65V30H172.502C171.792 30 171.26 29.8367 170.906 29.51C170.551 29.1833 170.374 28.6467 170.374 27.9V23.378H169.38V22.328H170.374V20.396H171.648V22.328H173.65V23.378H171.648Z" fill="white"/>
</svg>
