<svg width="17" height="16" viewBox="0 0 17 16" fill="none" xmlns="http://www.w3.org/2000/svg">
<path d="M8.49405 15.0522H8.29398C6.99398 15.0522 5.89398 15.0523 4.79398 14.9583C3.79398 14.9583 2.89403 14.582 2.09403 14.0175C1.39403 13.453 0.794027 12.7003 0.594027 11.7595C0.394027 11.0069 0.293954 10.1602 0.393954 9.40762C0.393954 8.84316 0.393954 8.18463 0.393954 7.5261C0.393954 6.86756 0.393954 6.20903 0.393954 5.64457C0.393954 4.89196 0.494027 4.04528 0.594027 3.29267C0.794027 2.44598 1.29403 1.59939 2.09403 1.03493C2.89403 0.470473 3.79398 0.0941681 4.79398 0.0941681C5.89398 9.18699e-05 7.09398 0 8.29398 0C9.49398 0 10.694 9.18699e-05 11.794 0.0941681C12.794 0.0941681 13.6941 0.470473 14.4941 1.03493C15.1941 1.59939 15.7941 2.35191 15.9941 3.29267C16.1941 4.04528 16.294 4.89196 16.194 5.64457C16.194 6.20903 16.194 6.86756 16.194 7.5261C16.194 8.18463 16.194 8.84316 16.194 9.40762C16.194 10.1602 16.0941 11.0069 15.9941 11.7595C15.7941 12.6062 15.2941 13.453 14.4941 14.0175C13.6941 14.582 12.794 14.9583 11.794 14.9583C10.894 14.9583 9.69405 15.0522 8.49405 15.0522ZM8.39395 13.8292C9.59395 13.8292 10.794 13.8293 11.894 13.7352C12.594 13.7352 13.294 13.4529 13.894 12.9826C14.394 12.6063 14.7941 12.0418 14.9941 11.3833C15.1941 10.7248 15.194 9.97222 15.194 9.31368C15.194 8.74923 15.194 8.09069 15.194 7.43216C15.194 6.77363 15.194 6.11509 15.194 5.55063C15.194 4.8921 15.1941 4.13931 14.9941 3.48077C14.7941 2.82224 14.494 2.25783 13.894 1.88152C13.294 1.41114 12.594 1.22294 11.894 1.12887C10.794 1.03479 9.69395 1.03493 8.39395 1.03493C7.19395 1.03493 5.99395 1.03479 4.89395 1.12887C4.19395 1.12887 3.49395 1.41114 2.89395 1.88152C2.39395 2.25783 1.99398 2.82224 1.79398 3.48077C1.59398 4.13931 1.59403 4.8921 1.59403 5.55063C1.59403 6.11509 1.59403 6.77363 1.59403 7.43216C1.59403 8.09069 1.59403 8.74923 1.59403 9.31368C1.59403 9.97222 1.59398 10.7248 1.79398 11.3833C1.99398 12.0418 2.29395 12.6063 2.89395 12.9826C3.49395 13.4529 4.19395 13.6411 4.89395 13.7352C5.99395 13.8293 7.19395 13.8292 8.39395 13.8292ZM8.39395 11.1952C6.19395 11.1952 4.49405 9.59577 4.49405 7.5261C4.49405 5.45642 6.19395 3.85722 8.39395 3.85722C10.594 3.85722 12.294 5.45642 12.294 7.5261C12.294 9.5017 10.494 11.1952 8.39395 11.1952ZM8.39395 4.98609C6.89395 4.98609 5.694 6.11495 5.694 7.5261C5.694 8.93724 6.89395 10.0661 8.39395 10.0661C9.89395 10.0661 11.094 8.93724 11.094 7.5261C10.994 6.11495 9.79395 4.98609 8.39395 4.98609ZM12.694 2.63418C12.194 2.63418 11.794 3.01039 11.794 3.48077C11.794 3.95116 12.194 4.3276 12.694 4.3276C13.194 4.3276 13.594 3.95116 13.594 3.48077C13.594 3.01039 13.194 2.63418 12.694 2.63418Z" fill="white"/>
</svg>
