<svg width="20" height="15" viewBox="0 0 20 15" fill="none" xmlns="http://www.w3.org/2000/svg">
<path d="M19.2939 1.78736C18.8939 1.97551 18.394 2.06949 17.994 2.16357C18.494 1.69319 18.894 1.12878 19.094 0.564319C19.094 0.470243 19.094 0.376121 18.994 0.282045C18.894 0.282045 18.8939 0.282045 18.7939 0.282045C18.1939 0.65835 17.4939 0.940624 16.7939 1.0347H16.694C16.594 1.0347 16.3939 1.03484 16.2939 0.940762C15.4939 0.282229 14.594 0 13.594 0C13.194 0 12.6939 0.0940303 12.2939 0.188106C10.9939 0.564411 9.89399 1.59916 9.59399 2.91622C9.49399 3.38661 9.39402 3.85699 9.49402 4.32737V4.42154L9.39392 4.51547C6.49392 4.23325 3.79392 2.91618 1.89392 0.752426C1.79392 0.65835 1.69399 0.65835 1.59399 0.752426C1.59399 0.752426 1.59399 0.752518 1.59399 0.846594C0.593994 2.35181 0.893945 4.32741 2.29395 5.5504C1.99395 5.45633 1.69392 5.36234 1.39392 5.17419C1.29392 5.08012 1.19399 5.17405 1.09399 5.26813V5.3623C1.09399 6.86752 1.99402 8.27871 3.49402 8.93724H3.39392C3.19392 8.93724 2.89397 8.93715 2.69397 8.84307C2.59397 8.84307 2.49392 8.9371 2.39392 9.03118V9.12535C2.89392 10.5365 4.09397 11.5714 5.69397 11.7595C4.39397 12.6062 2.89392 12.9823 1.39392 12.9823H0.893921C0.793921 12.9823 0.593994 13.0766 0.593994 13.1707C0.593994 13.2647 0.593945 13.4528 0.793945 13.5469C2.49395 14.4876 4.49402 14.958 6.49402 14.958C8.19402 14.958 9.89392 14.6758 11.3939 14.0173C12.7939 13.4528 13.994 12.6062 14.994 11.4773C15.894 10.4424 16.694 9.31355 17.194 7.99648C17.694 6.77349 17.8939 5.5505 17.8939 4.23343V4.13926C17.8939 3.95111 17.994 3.76296 18.194 3.66888C18.794 3.1985 19.3939 2.634 19.7939 1.97546C19.8939 1.88139 19.794 1.78726 19.694 1.69319C19.494 1.78726 19.3939 1.78736 19.2939 1.78736Z" fill="white"/>
</svg>
