<svg width="22" height="16" viewBox="0 0 22 16" fill="none" xmlns="http://www.w3.org/2000/svg">
<path d="M9.0871 4.18627C8.7871 3.99811 8.3871 4.09219 8.1871 4.37442C8.0871 4.4685 8.0871 4.56257 8.0871 4.65665V10.3953C8.0871 10.7716 8.3871 11.0538 8.7871 11.0538C8.8871 11.0538 8.9871 11.0538 9.0871 10.9598L14.1871 8.04339C14.4871 7.85524 14.5871 7.47893 14.3871 7.19671C14.2871 7.10263 14.2871 7.00855 14.1871 7.00855L9.0871 4.18627ZM9.3871 9.36046V5.78556L12.5871 7.57301L9.3871 9.36046Z" fill="white"/>
<path d="M17.7871 0.423343C13.1871 -0.141114 8.58711 -0.141114 3.98711 0.423343C2.28711 0.611495 0.987109 1.83449 0.787109 3.33971C0.287109 6.16199 0.287109 8.98428 0.787109 11.7125C1.08711 13.2177 2.38711 14.4407 3.98711 14.7229C6.28711 15.0052 8.58711 15.1933 10.8871 15.1933C13.1871 15.1933 15.4871 15.0992 17.7871 14.7229C19.3871 14.4407 20.6871 13.3118 20.9871 11.7125C21.4871 8.8902 21.4871 6.06792 20.9871 3.33971C20.7871 1.83449 19.4871 0.611495 17.7871 0.423343ZM19.6871 11.5243C19.4871 12.5592 18.6871 13.3118 17.5871 13.4999C13.0871 14.0644 8.58711 14.0644 4.08711 13.4999C2.98711 13.3118 2.18711 12.5592 1.98711 11.5243C1.48711 8.8902 1.48711 6.16199 1.98711 3.52786C2.18711 2.49302 2.98711 1.74041 4.08711 1.55226C6.38711 1.36411 8.68711 1.17595 10.8871 1.17595C13.1871 1.17595 15.3871 1.27003 17.5871 1.55226C18.6871 1.74041 19.4871 2.49302 19.6871 3.52786C20.1871 6.25607 20.1871 8.8902 19.6871 11.5243Z" fill="white"/>
</svg>
