<svg width="116" height="16" viewBox="0 0 116 16" fill="none" xmlns="http://www.w3.org/2000/svg">
<path d="M16.1375 6.77808C16.0375 6.97808 15.9375 7.27817 15.7375 7.37817C14.6375 8.27817 13.5375 9.27798 12.5375 10.178C12.4375 10.278 12.4375 10.3783 12.4375 10.4783C12.7375 11.8783 13.1375 13.3781 13.4375 14.7781C13.5375 15.2781 13.3375 15.6782 12.8375 15.8782C12.7375 15.8782 12.7375 15.8782 12.6375 15.8782C12.4375 15.8782 12.2375 15.878 12.0375 15.678L9.6375 14.2781C9.1375 13.9781 8.63751 13.6782 8.23751 13.3782C8.13751 13.2782 8.0375 13.2782 8.0375 13.3782C6.7375 14.1782 5.53751 14.878 4.23751 15.678C4.03751 15.778 3.7375 15.8781 3.5375 15.7781C3.0375 15.6781 2.83752 15.2781 2.83752 14.7781C3.13752 13.5781 3.3375 12.378 3.6375 11.178C3.7375 10.878 3.73752 10.5781 3.83752 10.2781C3.83752 10.1781 3.83751 10.0779 3.73751 10.0779C2.63751 9.07788 1.53752 8.07798 0.337515 7.17798C0.0375154 6.97798 -0.0625029 6.57798 0.0374971 6.17798C0.137497 5.77798 0.537515 5.57788 0.837515 5.57788L4.43752 5.27808C4.73752 5.27808 4.93751 5.17798 5.23751 5.17798C5.33751 5.17798 5.33752 5.07788 5.43752 5.07788C6.03752 3.67788 6.63751 2.37827 7.23751 0.978271C7.33751 0.578271 7.6375 0.378174 8.0375 0.378174C8.4375 0.378174 8.73752 0.578271 8.83752 0.978271C9.43752 2.37827 10.0375 3.67788 10.5375 5.07788C10.5375 5.17788 10.6375 5.27808 10.7375 5.27808C11.3375 5.37808 11.9375 5.37827 12.6375 5.47827L14.6375 5.67798C14.8375 5.67798 15.0375 5.67808 15.3375 5.77808C15.7375 5.77808 16.0375 6.07817 16.0375 6.37817L16.1375 6.77808Z" fill="#FFB000"/>
<path d="M41.0374 6.77808C40.9374 6.97808 40.8374 7.27817 40.6374 7.37817C39.5374 8.27817 38.4374 9.27798 37.4374 10.178C37.3374 10.278 37.3374 10.3783 37.3374 10.4783C37.6374 11.8783 38.0374 13.3781 38.3374 14.7781C38.4374 15.2781 38.2374 15.6782 37.7374 15.8782C37.6374 15.8782 37.6374 15.8782 37.5374 15.8782C37.3374 15.8782 37.1374 15.878 36.9374 15.678L34.5374 14.2781C34.0374 13.9781 33.5374 13.6782 33.1374 13.3782C33.0374 13.2782 32.9374 13.2782 32.9374 13.3782C31.6374 14.1782 30.4374 14.878 29.1374 15.678C28.9374 15.778 28.6374 15.8781 28.4374 15.7781C27.9374 15.6781 27.7374 15.2781 27.7374 14.7781C28.0374 13.5781 28.2374 12.378 28.5374 11.178C28.6374 10.878 28.6374 10.5781 28.7374 10.2781C28.7374 10.1781 28.7374 10.0779 28.6374 10.0779C27.5374 9.07788 26.4374 8.07798 25.2374 7.17798C24.9374 6.97798 24.8374 6.57798 24.9374 6.17798C25.0374 5.77798 25.4374 5.57788 25.7374 5.57788L29.3374 5.27808C29.6374 5.27808 29.8374 5.17798 30.1374 5.17798C30.2374 5.17798 30.2374 5.07788 30.3374 5.07788C30.9374 3.67788 31.5374 2.37827 32.1374 0.978271C32.2374 0.578271 32.5374 0.378174 32.9374 0.378174C33.3374 0.378174 33.6374 0.578271 33.7374 0.978271C34.3374 2.37827 34.9374 3.67788 35.4374 5.07788C35.4374 5.17788 35.5374 5.27808 35.6374 5.27808C36.2374 5.37808 36.8374 5.37827 37.5374 5.47827L39.5374 5.67798C39.7374 5.67798 39.9374 5.67808 40.2374 5.77808C40.6374 5.77808 40.9374 6.07817 40.9374 6.37817L41.0374 6.77808Z" fill="#FFB000"/>
<path d="M65.9376 6.77808C65.8376 6.97808 65.7375 7.27817 65.5375 7.37817C64.4375 8.27817 63.3376 9.27798 62.3376 10.178C62.2376 10.278 62.2375 10.3783 62.2375 10.4783C62.5375 11.8783 62.9375 13.3781 63.2375 14.7781C63.3375 15.2781 63.1375 15.6782 62.6375 15.8782C62.5375 15.8782 62.5376 15.8782 62.4376 15.8782C62.2376 15.8782 62.0376 15.878 61.8376 15.678L59.4376 14.2781C58.9376 13.9781 58.4375 13.6782 58.0375 13.3782C57.9375 13.2782 57.8376 13.2782 57.8376 13.3782C56.5376 14.1782 55.3375 14.878 54.0375 15.678C53.8375 15.778 53.5376 15.8781 53.3376 15.7781C52.8376 15.6781 52.6375 15.2781 52.6375 14.7781C52.9375 13.5781 53.1376 12.378 53.4376 11.178C53.5376 10.878 53.5375 10.5781 53.6375 10.2781C53.6375 10.1781 53.6375 10.0779 53.5375 10.0779C52.4375 9.07788 51.3375 8.07798 50.1375 7.17798C49.8375 6.97798 49.7376 6.57798 49.8376 6.17798C49.9376 5.77798 50.3375 5.57788 50.6375 5.57788L54.2375 5.27808C54.5375 5.27808 54.7375 5.17798 55.0375 5.17798C55.1375 5.17798 55.1375 5.07788 55.2375 5.07788C55.8375 3.67788 56.4375 2.37827 57.0375 0.978271C57.1375 0.578271 57.4376 0.378174 57.8376 0.378174C58.2376 0.378174 58.5375 0.578271 58.6375 0.978271C59.2375 2.37827 59.8376 3.67788 60.3376 5.07788C60.3376 5.17788 60.4375 5.27808 60.5375 5.27808C61.1375 5.37808 61.7376 5.37827 62.4376 5.47827L64.4376 5.67798C64.6376 5.67798 64.8375 5.67808 65.1375 5.77808C65.5375 5.77808 65.8376 6.07817 65.8376 6.37817L65.9376 6.77808Z" fill="#FFB000"/>
<path d="M90.8375 6.77808C90.7375 6.97808 90.6375 7.27817 90.4375 7.37817C89.3375 8.27817 88.2375 9.27798 87.2375 10.178C87.1375 10.278 87.1374 10.3783 87.1374 10.4783C87.4374 11.8783 87.8374 13.3781 88.1374 14.7781C88.2374 15.2781 88.0374 15.6782 87.5374 15.8782C87.4374 15.8782 87.4375 15.8782 87.3375 15.8782C87.1375 15.8782 86.9375 15.878 86.7375 15.678L84.3375 14.2781C83.8375 13.9781 83.3375 13.6782 82.9375 13.3782C82.8375 13.2782 82.7375 13.2782 82.7375 13.3782C81.4375 14.1782 80.2375 14.878 78.9375 15.678C78.7375 15.778 78.4375 15.8781 78.2375 15.7781C77.7375 15.6781 77.5374 15.2781 77.5374 14.7781C77.8374 13.5781 78.0375 12.378 78.3375 11.178C78.4375 10.878 78.4374 10.5781 78.5374 10.2781C78.5374 10.1781 78.5375 10.0779 78.4375 10.0779C77.3375 9.07788 76.2374 8.07798 75.0374 7.17798C74.7374 6.97798 74.6375 6.57798 74.7375 6.17798C74.8375 5.77798 75.2374 5.57788 75.5374 5.57788L79.1374 5.27808C79.4374 5.27808 79.6375 5.17798 79.9375 5.17798C80.0375 5.17798 80.0374 5.07788 80.1374 5.07788C80.7374 3.67788 81.3375 2.37827 81.9375 0.978271C82.0375 0.578271 82.3375 0.378174 82.7375 0.378174C83.1375 0.378174 83.4374 0.578271 83.5374 0.978271C84.1374 2.37827 84.7375 3.67788 85.2375 5.07788C85.2375 5.17788 85.3375 5.27808 85.4375 5.27808C86.0375 5.37808 86.6375 5.37827 87.3375 5.47827L89.3375 5.67798C89.5375 5.67798 89.7374 5.67808 90.0374 5.77808C90.4374 5.77808 90.7375 6.07817 90.7375 6.37817L90.8375 6.77808Z" fill="#FFB000"/>
<path d="M115.738 6.77808C115.638 6.97808 115.538 7.27817 115.338 7.37817C114.238 8.27817 113.138 9.27798 112.138 10.178C112.038 10.278 112.038 10.3783 112.038 10.4783C112.338 11.8783 112.738 13.3781 113.038 14.7781C113.138 15.2781 112.938 15.6782 112.438 15.8782C112.338 15.8782 112.338 15.8782 112.238 15.8782C112.038 15.8782 111.838 15.878 111.638 15.678L109.238 14.2781C108.738 13.9781 108.238 13.6782 107.838 13.3782C107.738 13.2782 107.638 13.2782 107.638 13.3782C106.338 14.1782 105.138 14.878 103.838 15.678C103.638 15.778 103.338 15.8781 103.138 15.7781C102.638 15.6781 102.438 15.2781 102.438 14.7781C102.738 13.5781 102.938 12.378 103.238 11.178C103.338 10.878 103.338 10.5781 103.438 10.2781C103.438 10.1781 103.438 10.0779 103.338 10.0779C102.238 9.07788 101.138 8.07798 99.9376 7.17798C99.6376 6.97798 99.5376 6.57798 99.6376 6.17798C99.7376 5.77798 100.138 5.57788 100.438 5.57788L104.038 5.27808C104.338 5.27808 104.538 5.17798 104.838 5.17798C104.938 5.17798 104.938 5.07788 105.038 5.07788C105.638 3.67788 106.238 2.37827 106.838 0.978271C106.938 0.578271 107.238 0.378174 107.638 0.378174C108.038 0.378174 108.338 0.578271 108.438 0.978271C109.038 2.37827 109.638 3.67788 110.138 5.07788C110.138 5.17788 110.238 5.27808 110.338 5.27808C110.938 5.37808 111.538 5.37827 112.238 5.47827L114.238 5.67798C114.438 5.67798 114.638 5.67808 114.938 5.77808C115.338 5.77808 115.638 6.07817 115.638 6.37817L115.738 6.77808Z" fill="#FFB000"/>
</svg>
