<svg width="20" height="20" viewBox="0 0 20 20" fill="none" xmlns="http://www.w3.org/2000/svg">
<path d="M19.7135 18.7966C18.0802 17.192 16.4183 15.5587 14.7851 13.9542C14.7278 13.8968 14.6991 13.8682 14.6991 13.8395C15.0716 13.2951 15.4728 12.7507 15.788 12.2063C16.7908 10.4585 17.0487 8.56733 16.6476 6.59026C16.3324 5.01433 15.5874 3.66762 14.4699 2.52149C13.2378 1.26074 11.7765 0.372492 10.0287 0.143266C9.02579 -3.0268e-07 8.16619 -0.0573069 6.81948 0.143266C5.07163 0.429799 3.58166 1.2894 2.34957 2.55014C1.23209 3.66762 0.515759 5.01433 0.200573 6.5616C0.143266 6.87679 0.0859598 7.22063 0.0573065 7.53582C-8.9407e-08 8.36676 0.0573065 8.99713 0.114613 9.48424C0.286533 11.2034 1.11748 12.6648 2.32092 13.8968C3.9255 15.5587 5.87393 16.4183 8.16619 16.5043C9.91404 16.5616 11.5186 16.1318 12.9799 15.2149C13.2378 15.043 13.4957 14.8711 13.7536 14.6705C13.8109 14.7278 13.8395 14.7564 13.8968 14.8138C15.5587 16.447 17.192 18.0516 18.8539 19.6848C19.1977 20.0286 19.5989 20.0573 19.8567 19.7708C20.1146 19.5129 20.0573 19.1404 19.7135 18.7966ZM12.149 14.212C9.85673 15.5874 7.4212 15.6447 5.04298 14.4126C3.09456 13.4097 1.86246 11.7765 1.43266 9.59885C1.00287 7.44986 1.51862 5.50143 2.92264 3.81089C4.06877 2.43553 5.55874 1.60458 7.3639 1.3467C9.1404 1.08882 10.8309 1.43266 12.3496 2.43553C14.0401 3.55301 15.1003 5.12894 15.4441 7.16332C15.5014 7.53582 15.5301 7.90831 15.5587 8.22349C15.4441 10.8596 14.3553 12.894 12.149 14.212Z" fill="#CACACA"/>
</svg>
