<svg width="35" height="35" viewBox="0 0 35 35" fill="none" xmlns="http://www.w3.org/2000/svg">
<circle cx="17.5" cy="17.5" r="17.5" fill="url(#paint0_linear_0_1)"/>
<path d="M6 23.5626C6.13237 22.972 6.50403 22.5647 6.93678 22.1574C8.41833 20.7726 9.1871 19.0467 9.24311 17.0204C9.27365 15.9054 9.24311 14.7853 9.25329 13.6653C9.28893 10.2796 11.6513 7.30123 14.9351 6.48155C15.4798 6.34409 15.9228 6.5681 16.045 7.03649C16.1672 7.50488 15.877 7.90709 15.3424 8.05983C13.1124 8.69114 11.6716 10.1218 11.0709 12.3568C10.9436 12.8252 10.9028 13.3241 10.8876 13.8129C10.8621 14.7446 10.8774 15.6763 10.8825 16.608C10.8978 19.398 9.87442 21.7297 7.7972 23.5982C7.71574 23.6746 7.62919 23.863 7.66483 23.9292C7.72083 24.0259 7.88375 24.1073 8.00594 24.1124C8.74417 24.1277 9.4773 24.1226 10.2155 24.1226C15.3067 24.1226 20.398 24.1226 25.4841 24.1226C25.5503 24.1226 25.6266 24.143 25.6877 24.1175C25.8099 24.0717 25.9728 24.0259 26.0238 23.9292C26.0594 23.8579 25.9728 23.6848 25.8914 23.5982C25.4179 23.0586 24.9037 22.5545 24.4608 21.9894C24.1553 21.6025 23.9313 21.1443 23.6971 20.7064C23.4781 20.2838 23.6462 19.8053 24.0484 19.6016C24.4608 19.398 24.9291 19.5507 25.143 19.9835C25.6165 20.9457 26.263 21.7705 27.0776 22.468C27.658 22.9669 27.8311 23.7917 27.5613 24.5146C27.2915 25.2427 26.6092 25.7365 25.8252 25.7416C24.252 25.7518 22.6737 25.7467 21.1006 25.7416C20.8969 25.7416 20.8205 25.7925 20.7594 25.9962C20.2503 27.6559 19.1404 28.6436 17.4247 28.9542C17.3738 28.9644 17.328 28.9847 17.2821 29C16.9767 29 16.6712 29 16.3657 29C16.3199 28.9847 16.2741 28.9593 16.2283 28.9542C14.6805 28.6742 13.6165 27.7934 13.0259 26.3373C12.9495 26.1489 12.9037 25.9504 12.8426 25.7467C12.7459 25.7467 12.6542 25.7467 12.5626 25.7467C11.0403 25.7467 9.51803 25.7467 7.99067 25.7467C7.00297 25.7467 6.30547 25.2121 6.04582 24.2601C6.03564 24.2295 6.01527 24.2041 6 24.1735C6 23.9699 6 23.7662 6 23.5626ZM19.1048 25.762C17.5978 25.762 16.0908 25.762 14.5787 25.762C14.8078 26.6733 15.8515 27.3912 16.9003 27.3708C17.8982 27.3555 18.9266 26.6071 19.1048 25.762Z" fill="white"/>
<path d="M23.5851 17.224C20.2045 17.2087 17.4756 14.4748 17.4858 11.0993C17.496 7.71362 20.2503 4.98473 23.6309 5C26.9962 5.01528 29.7302 7.77981 29.7098 11.1502C29.6945 14.5104 26.9453 17.2393 23.5851 17.224ZM23.5953 15.8137C26.1867 15.8188 28.2996 13.7162 28.3046 11.1298C28.3097 8.53331 26.1969 6.41027 23.6054 6.41027C21.014 6.41027 18.9113 8.50276 18.9012 11.0993C18.891 13.7009 20.9886 15.8137 23.5953 15.8137Z" fill="white"/>
<defs>
<linearGradient id="paint0_linear_0_1" x1="29.0132" y1="4.14474" x2="7.82895" y2="32.2368" gradientUnits="userSpaceOnUse">
<stop stop-color="#00477F"/>
<stop offset="1" stop-color="#5AA058"/>
</linearGradient>
</defs>
</svg>
