<svg width="30" height="26" viewBox="0 0 30 26" fill="none" xmlns="http://www.w3.org/2000/svg">
<path d="M15.0968 3.62276C15.6054 3.06064 16.0515 2.41823 16.6226 1.94534C19.0138 -0.0265237 21.7351 -0.517258 24.6349 0.544513C27.5258 1.60628 29.2657 3.75659 29.7832 6.79915C30.2382 9.44911 29.5066 11.8136 27.6239 13.7319C23.9211 17.5061 20.1559 21.2267 16.4174 24.9652C16.1943 25.1883 15.9802 25.4114 15.7571 25.6255C15.2396 26.1252 14.6418 26.1252 14.1332 25.6166C12.7413 24.2336 11.3583 22.8506 9.97535 21.4587C7.46814 18.9515 4.96986 16.4532 2.46265 13.946C0.803075 12.2864 -0.0356344 10.2789 5.54019e-05 7.91445C0.0625125 3.94396 3.10507 0.57128 7.05771 0.107313C9.63629 -0.19605 11.8669 0.562358 13.7495 2.34685C14.1511 2.73051 14.5258 3.14094 14.9095 3.54245C14.9719 3.56922 15.0344 3.59599 15.0968 3.62276ZM14.9987 23.4306C15.1058 23.2967 15.1771 23.1897 15.2753 23.0915C16.9616 21.3963 18.6569 19.7099 20.3521 18.0147C22.2794 16.0874 24.2245 14.178 26.125 12.224C27.5169 10.7875 28.0522 9.02976 27.6775 7.06682C27.2403 4.75591 25.8662 3.16771 23.6088 2.46284C21.3515 1.75797 19.3261 2.30223 17.613 3.92612C16.9884 4.515 16.3995 5.13957 15.7928 5.73738C15.2574 6.2638 14.6686 6.2638 14.1243 5.72845C13.4729 5.08604 12.8395 4.42578 12.1792 3.8012C9.99319 1.72228 6.54021 1.62413 4.25606 3.5603C1.56148 5.84444 1.40088 9.83278 3.90809 12.3489C7.51275 15.9714 11.1263 19.5761 14.7399 23.1897C14.8024 23.2611 14.8648 23.3146 14.9987 23.4306Z" fill="black"/>
</svg>
