<svg width="27" height="26" viewBox="0 0 27 26" fill="none" xmlns="http://www.w3.org/2000/svg">
<path d="M12.2428 0C12.7516 0 13.2604 0 13.7692 0C14.1127 0.0381605 14.4561 0.0763209 14.7995 0.127202C17.3627 0.489726 19.6268 1.5137 21.5667 3.22456C23.8499 5.2407 25.281 7.75293 25.8088 10.7613C25.8915 11.251 25.9424 11.7471 26.006 12.2368C26.006 12.7456 26.006 13.2544 26.006 13.7632C25.9933 13.8459 25.9678 13.9222 25.9615 14.0049C25.8852 15.1751 25.6371 16.3136 25.2364 17.4139C22.9659 23.6786 16.3578 27.2084 9.88321 25.6248C3.20512 23.9902 -1.07521 17.3121 0.234968 10.5641C0.737414 7.97554 1.90767 5.73679 3.76481 3.86693C5.70464 1.90802 8.03878 0.667808 10.7673 0.197162C11.257 0.114481 11.7531 0.0636008 12.2428 0ZM21.6748 20.4731C25.4908 16.1864 25.7071 8.80235 20.4409 4.27397C15.4546 -0.00636047 7.84798 0.750489 3.81569 6.14384C-0.0512355 11.3146 1.56422 17.5665 4.34358 20.4477C5.18947 17.4775 7.05297 15.4295 9.92137 14.272C6.97665 12.1477 6.95121 8.38258 8.83379 6.20744C10.8181 3.91781 14.1953 3.61888 16.485 5.53327C17.6043 6.4682 18.2849 7.67025 18.4248 9.12035C18.641 11.2637 17.8079 12.9682 16.0906 14.272C18.9718 15.4359 20.8225 17.4902 21.6748 20.4731ZM13.2159 24.4799C13.4894 24.4545 13.9791 24.4354 14.4688 24.3718C16.415 24.1301 18.1768 23.4242 19.7541 22.2666C20.4219 21.7769 20.4091 21.7642 20.212 20.9501C19.277 17.1277 15.6264 14.7236 11.7594 15.3723C8.60483 15.9002 6.10532 18.4887 5.68556 21.6561C5.67284 21.7324 5.73008 21.8469 5.79368 21.8977C7.8925 23.5959 10.303 24.4418 13.2159 24.4799ZM13.0124 13.6805C15.1875 13.6742 16.9493 11.9124 16.9556 9.74364C16.962 7.57485 15.1684 5.78767 12.9996 5.78767C10.8245 5.79403 9.03096 7.59393 9.0564 9.75636C9.08184 11.9379 10.8499 13.6932 13.0124 13.6805Z" fill="black"/>
</svg>
