<svg width="31" height="26" viewBox="0 0 31 26" fill="none" xmlns="http://www.w3.org/2000/svg">
<path d="M18.177 21.1551C15.7907 21.1551 13.4148 21.1551 11.0285 21.1551C9.34776 21.1551 8.3725 20.3044 8.06125 18.6444C7.05486 13.2493 6.03811 7.84388 5.03172 2.44883C4.92797 1.88858 4.89684 1.86783 4.32621 1.86783C3.21608 1.86783 2.09557 1.88858 0.985432 1.86783C0.238425 1.84708 -0.197329 1.19344 0.0931734 0.560564C0.2488 0.20781 0.539303 0.0210582 0.923181 0.0106831C2.22007 0.000308035 3.51696 -0.0204422 4.80347 0.0210582C5.79948 0.0521835 6.55686 0.726565 6.77474 1.70182C6.96149 2.52146 7.12749 3.34109 7.26237 4.1711C7.31424 4.47198 7.43874 4.53423 7.71887 4.53423C11.8897 4.52385 16.0501 4.52385 20.2209 4.52385C22.7939 4.52385 25.3669 4.51348 27.9503 4.52385C29.4651 4.53423 30.5545 5.49911 30.7205 6.962C30.7516 7.26288 30.7205 7.58451 30.6582 7.88539C29.849 11.5789 29.019 15.2828 28.1889 18.9764C27.8881 20.3148 26.8194 21.1344 25.398 21.1344C22.991 21.1551 20.584 21.1551 18.177 21.1551ZM7.75 6.40175C7.96787 7.54301 8.18575 8.63239 8.3725 9.72178C8.89126 12.6372 9.41001 15.5526 9.92877 18.468C10.0325 19.0386 10.3023 19.2772 10.8833 19.2772C15.7388 19.2772 20.5944 19.2772 25.4499 19.2772C26.0309 19.2772 26.2903 19.0594 26.4252 18.4784C27.2241 14.899 28.0229 11.3092 28.8218 7.72976C29.0293 6.77525 28.7181 6.41212 27.7324 6.41212C21.6111 6.41212 15.4898 6.40175 9.36851 6.40175C8.84976 6.40175 8.331 6.40175 7.75 6.40175Z" fill="black"/>
<path d="M12.1181 22.2753C13.1245 22.2753 13.9752 23.1261 13.9752 24.1325C13.9752 25.17 13.1245 26.0104 12.0974 26C11.0806 25.9896 10.261 25.17 10.2506 24.1429C10.2402 23.095 11.0702 22.265 12.1181 22.2753Z" fill="black"/>
<path d="M26.1971 24.1014C26.2075 25.1492 25.3879 25.9896 24.3504 25.9896C23.3336 25.9896 22.5036 25.1804 22.4725 24.1532C22.4517 23.1365 23.2921 22.2753 24.3296 22.265C25.3568 22.265 26.1868 23.0846 26.1971 24.1014Z" fill="black"/>
</svg>
